<?xml version="1.0" encoding="UTF-8"?>
<svg version="1.1" viewBox="0 0 192 192" xmlns="http://www.w3.org/2000/svg">
    <rect x="32" y="16" width="128" height="160" rx="8" fill="#bcb9b4"/>
    <path d="m70.836 29.395a1.2837 1.2837 0 0 0-1.2844 1.2844l-6.8e-5 17.594a1.2837 1.2837 0 0 0 0.3714 0.9014l12.194 12.364a1.2837 1.2837 0 0 0 1.826 0l12.194-12.364a1.2837 1.2837 0 0 0 0.3714-0.9014l8e-5 -17.594a1.2837 1.2837 0 0 0-1.2844-1.2844h-12.194z" fill="#0e0e1a"/>
    <path d="m120.66 54.836a1.2837 1.2837 0 0 0-1.2844-1.2844l-17.594-8e-5a1.2837 1.2837 0 0 0-0.9014 0.3712l-12.364 12.194a1.2837 1.2837 0 0 0 4e-6 1.826l12.364 12.194a1.2837 1.2837 0 0 0 0.9014 0.3712l17.594 8e-5a1.2837 1.2837 0 0 0 1.2844-1.2844v-12.194z" fill="#0e0e1a"/>
    <path d="m95.224 104.66a1.2837 1.2837 0 0 0 1.2844-1.2844l7.2e-5 -17.594a1.2837 1.2837 0 0 0-0.3714-0.9014l-12.194-12.364a1.2837 1.2837 0 0 0-1.826 0l-12.194 12.364a1.2837 1.2837 0 0 0-0.3714 0.9014l-7.2e-5 17.594a1.2837 1.2837 0 0 0 1.2844 1.2844h12.194z" fill="#0e0e1a"/>
    <path d="m45.396 79.224a1.2837 1.2837 0 0 0 1.2844 1.2844l17.594 8e-5a1.2837 1.2837 0 0 0 0.9014-0.3712l12.364-12.194a1.2837 1.2837 0 0 0-4e-6 -1.826l-12.364-12.194a1.2837 1.2837 0 0 0-0.9014-0.3712l-17.594-8e-5a1.2837 1.2837 0 0 0-1.2844 1.2844v12.194z" fill="#0e0e1a"/>
    <circle transform="rotate(-15)" cx="43.936" cy="161.02" r="18.445" fill="#830b48"/>
    <circle transform="rotate(-15)" cx="89.536" cy="161.02" r="18.445" fill="#830b48"/>
</svg>
