<?xml version="1.0" encoding="UTF-8"?>
<svg version="1.1" viewBox="0 0 48 48" xmlns="http://www.w3.org/2000/svg">
    <rect x="8" y="4" width="32" height="40" rx="2" fill="#bcb9b4"/>
    <path d="m17.709 7.3488a0.32092 0.32092 0 0 0-0.3211 0.3211l-1.7e-5 4.3986a0.32092 0.32092 0 0 0 0.09285 0.22535l3.0485 3.0911a0.32092 0.32092 0 0 0 0.4565 0l3.0485-3.0911a0.32092 0.32092 0 0 0 0.09285-0.22535l2e-5 -4.3986a0.32092 0.32092 0 0 0-0.3211-0.3211h-3.0485z" fill="#0e0e1a" stroke-width=".47085"/>
    <path d="m30.166 13.709a0.32092 0.32092 0 0 0-0.3211-0.3211l-4.3986-1.8e-5a0.32092 0.32092 0 0 0-0.22535 0.09285l-3.0911 3.0485a0.32092 0.32092 0 0 0 1e-6 0.4565l3.0911 3.0485a0.32092 0.32092 0 0 0 0.22535 0.09285l4.3986 1.8e-5a0.32092 0.32092 0 0 0 0.3211-0.3211v-3.0485z" fill="#0e0e1a" stroke-width=".47085"/>
    <path d="m23.806 26.166a0.32092 0.32092 0 0 0 0.3211-0.3211l1.8e-5 -4.3986a0.32092 0.32092 0 0 0-0.09285-0.22535l-3.0485-3.0911a0.32092 0.32092 0 0 0-0.4565 0l-3.0485 3.0911a0.32092 0.32092 0 0 0-0.09285 0.22535l-1.8e-5 4.3986a0.32092 0.32092 0 0 0 0.3211 0.3211h3.0485z" fill="#0e0e1a" stroke-width=".47085"/>
    <path d="m11.349 19.806a0.32092 0.32092 0 0 0 0.3211 0.3211l4.3986 1.8e-5a0.32092 0.32092 0 0 0 0.22535-0.09285l3.0911-3.0485a0.32092 0.32092 0 0 0-1e-6 -0.4565l-3.0911-3.0485a0.32092 0.32092 0 0 0-0.22535-0.09285l-4.3986-1.9e-5a0.32092 0.32092 0 0 0-0.3211 0.3211v3.0485z" fill="#0e0e1a" stroke-width=".47085"/>
    <circle transform="rotate(-15)" cx="10.984" cy="40.254" r="4.6113" fill="#830b48"/>
    <circle transform="rotate(-15)" cx="22.384" cy="40.254" r="4.6113" fill="#830b48"/>
</svg>
